<?xml version="1.0" standalone="no"?>
<!DOCTYPE svg PUBLIC "-//W3C//DTD SVG 20010904//EN"
 "http://www.w3.org/TR/2001/REC-SVG-20010904/DTD/svg10.dtd">
<svg version="1.0" xmlns="http://www.w3.org/2000/svg"
 width="628.000000pt" height="628.000000pt" viewBox="0 0 628.000000 628.000000"
 preserveAspectRatio="xMidYMid meet">
<metadata>
Created by potrace 1.14, written by Peter Selinger 2001-2017
</metadata>
<g transform="translate(0.000000,628.000000) scale(0.100000,-0.100000)"
fill="#000000" stroke="none">
<path d="M135 6259 c-41 -12 -95 -61 -117 -107 -16 -35 -17 -116 -18 -1302 0
-839 4 -1277 10 -1302 6 -20 26 -53 45 -72 68 -71 -29 -66 1369 -66 832 0
1274 4 1298 10 20 6 53 26 72 45 71 68 66 -32 63 1389 l-2 1282 -28 42 c-17
26 -45 51 -77 67 l-49 25 -1268 -1 c-702 0 -1282 -5 -1298 -10z"/>
<path d="M3544 6259 c-17 -5 -46 -24 -65 -42 -69 -67 -64 49 -67 -1355 -1
-836 1 -1287 8 -1311 5 -21 25 -54 45 -73 71 -74 -45 -68 1384 -65 l1286 2 41
27 c23 14 52 44 65 65 l24 38 3 1270 c2 973 0 1280 -9 1314 -15 55 -73 113
-127 129 -48 15 -2538 16 -2588 1z"/>
<path d="M130 2847 c-51 -24 -88 -58 -109 -99 -21 -42 -21 -44 -21 -1308 0
-808 4 -1278 10 -1301 11 -40 55 -93 97 -118 25 -15 143 -16 1310 -18 980 -2
1289 0 1310 9 54 23 84 50 108 98 l25 49 0 1261 c0 946 -3 1272 -12 1302 -14
48 -60 97 -111 121 -34 15 -130 17 -1310 16 -951 0 -1278 -4 -1297 -12z"/>
<path d="M3545 2849 c-16 -5 -46 -23 -65 -41 -71 -66 -65 51 -67 -1370 l-3
-1287 21 -38 c28 -51 75 -91 118 -103 42 -12 2574 -14 2585 -2 4 4 12 8 17 8
5 1 13 2 17 3 19 2 83 74 97 108 13 31 15 202 15 1296 0 904 -3 1270 -11 1297
-15 49 -54 95 -104 119 -39 20 -63 20 -1315 20 -716 -1 -1288 -5 -1305 -10z
m643 -189 c125 1 234 2 242 1 8 0 116 0 240 0 124 1 232 1 240 0 8 0 116 0
240 0 124 1 232 1 240 0 8 0 116 0 240 0 124 1 232 1 240 0 8 0 61 0 117 0
102 0 103 0 94 -23 -4 -13 -5 -35 -1 -49 4 -15 4 -32 0 -39 -5 -7 -5 -23 0
-34 4 -12 4 -30 0 -41 -4 -11 -4 -32 0 -46 4 -15 4 -32 0 -39 -5 -7 -5 -23 0
-34 4 -12 4 -30 0 -41 -4 -11 -4 -32 0 -46 4 -15 4 -32 0 -39 -5 -7 -4 -23 0
-36 5 -12 6 -24 4 -27 -9 -9 -10 -70 -3 -99 4 -16 4 -28 -1 -28 -5 0 -5 -13 0
-30 5 -17 5 -30 0 -30 -5 0 -5 -13 0 -30 5 -17 5 -30 0 -30 -5 0 -5 -13 0 -30
5 -17 5 -30 0 -30 -5 0 -5 -13 0 -30 5 -17 5 -30 0 -30 -5 0 -5 -13 0 -30 5
-17 5 -30 0 -30 -5 0 -5 -13 0 -30 5 -17 5 -30 0 -30 -5 0 -5 -13 0 -30 5 -17
5 -30 0 -30 -5 0 -5 -13 0 -30 5 -19 5 -30 -1 -30 -6 0 -7 -5 -4 -10 6 -9 7
-61 4 -130 0 -8 0 -24 1 -35 1 -27 1 -87 1 -102 -1 -7 -1 -19 -2 -25 0 -7 0
-22 1 -33 0 -11 0 -44 -1 -73 -1 -29 1 -55 4 -58 3 -4 2 -14 -3 -23 -5 -10 -5
-23 0 -31 5 -8 5 -21 0 -30 -5 -9 -5 -22 0 -30 5 -8 5 -21 0 -30 -5 -9 -5 -22
0 -29 4 -8 4 -27 0 -42 -5 -16 -5 -29 0 -29 5 0 5 -13 0 -30 -5 -17 -5 -30 0
-30 5 0 5 -13 0 -30 -5 -17 -5 -30 0 -30 5 0 5 -13 0 -30 -5 -16 -6 -30 -2
-30 8 0 7 -181 0 -202 -3 -7 -2 -22 2 -33 4 -11 4 -30 -1 -41 -4 -12 -5 -25
-2 -28 9 -9 9 -146 0 -146 -5 0 -5 -4 -2 -10 3 -5 -2 -10 -12 -11 -10 0 -35
-1 -56 -2 -20 -1 -37 1 -37 4 0 4 -15 3 -32 0 -18 -4 -48 -4 -65 0 -18 4 -33
3 -33 -1 0 -5 -12 -5 -27 -1 -16 4 -44 4 -65 1 -20 -4 -42 -4 -49 1 -7 4 -20
4 -29 -1 -9 -5 -22 -5 -30 0 -8 5 -21 5 -30 0 -9 -5 -22 -5 -30 0 -8 5 -21 5
-30 0 -9 -5 -22 -5 -29 0 -8 4 -27 4 -42 0 -16 -5 -29 -5 -29 0 0 5 -13 5 -30
0 -17 -5 -30 -5 -30 0 0 5 -13 5 -30 0 -16 -5 -30 -5 -30 -1 0 5 -15 5 -32 2
-18 -4 -48 -4 -65 0 -18 4 -33 3 -33 -1 0 -5 -12 -5 -27 -1 -16 4 -44 4 -65 1
-20 -4 -42 -4 -49 1 -7 4 -20 4 -29 -1 -9 -5 -22 -5 -30 0 -8 5 -21 5 -30 0
-9 -5 -22 -5 -30 0 -8 5 -21 5 -30 0 -9 -5 -22 -5 -29 0 -8 4 -27 4 -42 0 -16
-5 -29 -5 -29 0 0 5 -13 5 -30 0 -17 -5 -30 -5 -30 0 0 5 -13 5 -30 0 -16 -5
-30 -5 -30 -1 0 5 -15 5 -32 2 -18 -4 -48 -4 -65 0 -18 4 -33 3 -33 -1 0 -5
-12 -5 -27 -1 -16 4 -44 4 -65 1 -20 -4 -42 -4 -49 1 -7 4 -20 4 -29 -1 -9 -5
-22 -5 -30 0 -8 5 -21 5 -30 0 -9 -5 -22 -5 -30 0 -8 5 -21 5 -30 0 -9 -5 -22
-5 -29 0 -8 4 -27 4 -42 0 -16 -5 -29 -5 -29 0 0 5 -13 5 -30 0 -17 -5 -30 -5
-30 0 0 5 -13 5 -30 0 -16 -5 -30 -5 -30 0 0 4 -15 5 -32 1 -18 -4 -48 -4 -65
0 -18 3 -33 3 -33 -2 0 -4 -12 -4 -27 0 -16 4 -39 5 -53 1 -14 -3 -40 -3 -57
1 -18 4 -33 3 -33 -1 0 -5 -13 -5 -30 0 -16 5 -32 5 -35 0 -3 -5 -18 -5 -34 0
-16 4 -32 6 -35 2 -3 -3 -6 549 -6 1226 l0 1232 168 2 c92 2 170 2 175 0 4 -2
110 -3 235 -2z"/>
</g>
</svg>
